<?xml version="1.0" encoding="utf-8"?>
<svg version="1.1" id="Layer_1" xmlns="http://www.w3.org/2000/svg" xmlns:xlink="http://www.w3.org/1999/xlink" height="1080" width="1920">
	<polygon points="684,0 801,50 1117,0 " style="fill:rgb(255, 195, 255);stroke-width:none"/>
	<polygon points="1115,1080 1107,884 911,1080 " style="fill:rgb(255, 207, 255);stroke-width:none"/>
	<polygon points="1069,184 1055,77 951,181 " style="fill:rgb(255, 198, 255);stroke-width:none"/>
	<polygon points="1055,77 842,100 951,181 " style="fill:rgb(255, 196, 255);stroke-width:none"/>
	<polygon points="801,50 1055,77 1117,0 " style="fill:rgb(255, 197, 255);stroke-width:none"/>
	<polygon points="842,100 1055,77 801,50 " style="fill:rgb(255, 195, 255);stroke-width:none"/>
	<polygon points="64,679 68,791 175,754 " style="fill:rgb(213, 208, 209);stroke-width:none"/>
	<polygon points="0,959 68,791 64,679 " style="fill:rgb(168, 211, 142);stroke-width:none"/>
	<polygon points="0,183 0,959 64,679 " style="fill:rgb(255, 203, 255);stroke-width:none"/>
	<polygon points="684,0 671,211 801,50 " style="fill:rgb(255, 194, 255);stroke-width:none"/>
	<polygon points="1404,939 1419,855 1107,884 " style="fill:rgb(96, 236, 104);stroke-width:none"/>
	<polygon points="1544,830 1636,964 1631,758 " style="fill:rgb(37, 246, 39);stroke-width:none"/>
	<polygon points="1745,643 1590,599 1631,758 " style="fill:rgb(74, 243, 89);stroke-width:none"/>
	<polygon points="1086,356 1220,297 1069,184 " style="fill:rgb(255, 201, 255);stroke-width:none"/>
	<polygon points="1109,119 1055,77 1069,184 " style="fill:rgb(255, 199, 255);stroke-width:none"/>
	<polygon points="1220,297 1109,119 1069,184 " style="fill:rgb(255, 201, 255);stroke-width:none"/>
	<polygon points="1109,119 1220,297 1225,110 " style="fill:rgb(255, 203, 255);stroke-width:none"/>
	<polygon points="1186,41 1109,119 1225,110 " style="fill:rgb(255, 202, 255);stroke-width:none"/>
	<polygon points="1055,77 1109,119 1117,0 " style="fill:rgb(255, 200, 255);stroke-width:none"/>
	<polygon points="1247,692 1152,624 1101,691 " style="fill:rgb(55, 240, 49);stroke-width:none"/>
	<polygon points="1220,297 1188,438 1263,336 " style="fill:rgb(255, 204, 255);stroke-width:none"/>
	<polygon points="1188,438 1220,297 1086,356 " style="fill:rgb(255, 202, 255);stroke-width:none"/>
	<polygon points="1919,439 1858,483 1856,509 " style="fill:rgb(76, 244, 99);stroke-width:none"/>
	<polygon points="130,934 68,791 0,959 " style="fill:rgb(60, 220, 0);stroke-width:none"/>
	<polygon points="684,1080 559,1020 0,1080 " style="fill:rgb(135, 213, 93);stroke-width:none"/>
	<polygon points="559,1020 163,968 0,1080 " style="fill:rgb(32, 221, 0);stroke-width:none"/>
	<polygon points="402,909 559,1020 488,941 " style="fill:rgb(150, 214, 123);stroke-width:none"/>
	<polygon points="559,1020 402,909 163,968 " style="fill:rgb(112, 216, 66);stroke-width:none"/>
	<polygon points="35,261 0,183 64,679 " style="fill:rgb(215, 209, 214);stroke-width:none"/>
	<polygon points="0,183 35,261 71,252 " style="fill:rgb(215, 209, 214);stroke-width:none"/>
	<polygon points="178,106 0,183 71,252 " style="fill:rgb(221, 208, 220);stroke-width:none"/>
	<polygon points="1107,884 847,912 911,1080 " style="fill:rgb(222, 213, 240);stroke-width:none"/>
	<polygon points="150,582 64,679 175,754 " style="fill:rgb(236, 207, 242);stroke-width:none"/>
	<polygon points="842,100 765,243 951,181 " style="fill:rgb(255, 195, 255);stroke-width:none"/>
	<polygon points="574,203 684,0 544,0 " style="fill:rgb(255, 194, 255);stroke-width:none"/>
	<polygon points="574,203 671,211 684,0 " style="fill:rgb(255, 194, 255);stroke-width:none"/>
	<polygon points="1247,692 1356,732 1364,660 " style="fill:rgb(43, 244, 41);stroke-width:none"/>
	<polygon points="1356,732 1441,766 1364,660 " style="fill:rgb(38, 245, 38);stroke-width:none"/>
	<polygon points="1441,766 1356,732 1419,855 " style="fill:rgb(36, 246, 38);stroke-width:none"/>
	<polygon points="1419,855 1356,732 1107,884 " style="fill:rgb(51, 243, 52);stroke-width:none"/>
	<polygon points="1356,732 1247,692 1107,884 " style="fill:rgb(35, 245, 32);stroke-width:none"/>
	<polygon points="1115,1080 1247,1078 1107,884 " style="fill:rgb(248, 211, 255);stroke-width:none"/>
	<polygon points="1247,1078 1404,939 1107,884 " style="fill:rgb(194, 220, 214);stroke-width:none"/>
	<polygon points="1527,784 1441,766 1419,855 " style="fill:rgb(39, 246, 41);stroke-width:none"/>
	<polygon points="1544,830 1527,784 1419,855 " style="fill:rgb(41, 245, 44);stroke-width:none"/>
	<polygon points="1527,784 1544,830 1631,758 " style="fill:rgb(38, 247, 43);stroke-width:none"/>
	<polygon points="1590,599 1527,784 1631,758 " style="fill:rgb(52, 245, 61);stroke-width:none"/>
	<polygon points="1109,119 1124,0 1117,0 " style="fill:rgb(255, 200, 255);stroke-width:none"/>
	<polygon points="1216,587 1152,624 1247,692 " style="fill:rgb(77, 236, 73);stroke-width:none"/>
	<polygon points="1216,587 1285,507 1213,523 " style="fill:rgb(178, 218, 183);stroke-width:none"/>
	<polygon points="765,243 829,337 951,181 " style="fill:rgb(255, 195, 255);stroke-width:none"/>
	<polygon points="829,337 765,243 784,353 " style="fill:rgb(255, 194, 255);stroke-width:none"/>
	<polygon points="1007,332 1069,184 951,181 " style="fill:rgb(255, 197, 255);stroke-width:none"/>
	<polygon points="1007,332 1086,356 1069,184 " style="fill:rgb(255, 198, 255);stroke-width:none"/>
	<polygon points="829,337 1007,332 951,181 " style="fill:rgb(255, 196, 255);stroke-width:none"/>
	<polygon points="1216,587 1141,579 1152,624 " style="fill:rgb(112, 229, 109);stroke-width:none"/>
	<polygon points="1152,624 1141,579 1101,691 " style="fill:rgb(82, 235, 76);stroke-width:none"/>
	<polygon points="1917,431 1858,483 1919,439 " style="fill:rgb(76, 244, 99);stroke-width:none"/>
	<polygon points="1917,431 1810,132 1761,374 " style="fill:rgb(89, 242, 111);stroke-width:none"/>
	<polygon points="1917,431 1919,439 1920,0 " style="fill:rgb(76, 244, 99);stroke-width:none"/>
	<polygon points="1810,132 1917,431 1920,0 " style="fill:rgb(76, 244, 99);stroke-width:none"/>
	<polygon points="1570,499 1677,371 1559,374 " style="fill:rgb(168, 224, 186);stroke-width:none"/>
	<polygon points="1810,132 1677,371 1761,374 " style="fill:rgb(119, 235, 139);stroke-width:none"/>
	<polygon points="1546,583 1369,554 1364,660 " style="fill:rgb(100, 234, 106);stroke-width:none"/>
	<polygon points="1441,766 1546,583 1364,660 " style="fill:rgb(57, 243, 61);stroke-width:none"/>
	<polygon points="1546,583 1527,784 1590,599 " style="fill:rgb(69, 242, 79);stroke-width:none"/>
	<polygon points="1527,784 1546,583 1441,766 " style="fill:rgb(46, 245, 51);stroke-width:none"/>
	<polygon points="1499,378 1570,499 1559,374 " style="fill:rgb(186, 220, 203);stroke-width:none"/>
	<polygon points="68,791 126,802 175,754 " style="fill:rgb(179, 212, 163);stroke-width:none"/>
	<polygon points="130,934 126,802 68,791 " style="fill:rgb(128, 215, 90);stroke-width:none"/>
	<polygon points="0,1062 116,980 0,959 " style="fill:rgb(0, 234, 0);stroke-width:none"/>
	<polygon points="116,980 130,934 0,959 " style="fill:rgb(0, 228, 0);stroke-width:none"/>
	<polygon points="130,934 116,980 163,968 " style="fill:rgb(0, 226, 0);stroke-width:none"/>
	<polygon points="116,980 0,1062 0,1080 " style="fill:rgb(0, 234, 0);stroke-width:none"/>
	<polygon points="163,968 116,980 0,1080 " style="fill:rgb(0, 231, 0);stroke-width:none"/>
	<polygon points="178,106 67,0 0,183 " style="fill:rgb(221, 208, 220);stroke-width:none"/>
	<polygon points="684,983 684,1080 911,1080 " style="fill:rgb(254, 205, 255);stroke-width:none"/>
	<polygon points="847,912 684,983 911,1080 " style="fill:rgb(255, 204, 255);stroke-width:none"/>
	<polygon points="867,543 829,337 784,353 " style="fill:rgb(255, 194, 255);stroke-width:none"/>
	<polygon points="829,337 867,543 1006,394 " style="fill:rgb(255, 195, 255);stroke-width:none"/>
	<polygon points="738,232 765,243 842,100 " style="fill:rgb(255, 194, 255);stroke-width:none"/>
	<polygon points="738,232 842,100 801,50 " style="fill:rgb(255, 194, 255);stroke-width:none"/>
	<polygon points="671,211 738,232 801,50 " style="fill:rgb(255, 194, 255);stroke-width:none"/>
	<polygon points="574,203 644,257 671,211 " style="fill:rgb(255, 194, 255);stroke-width:none"/>
	<polygon points="1614,986 1533,1080 1697,1080 " style="fill:rgb(53, 239, 42);stroke-width:none"/>
	<polygon points="1614,986 1697,1080 1636,964 " style="fill:rgb(30, 242, 14);stroke-width:none"/>
	<polygon points="1544,830 1614,986 1636,964 " style="fill:rgb(47, 242, 43);stroke-width:none"/>
	<polygon points="1448,987 1404,939 1423,1080 " style="fill:rgb(158, 225, 171);stroke-width:none"/>
	<polygon points="1614,986 1448,987 1533,1080 " style="fill:rgb(103, 232, 104);stroke-width:none"/>
	<polygon points="1448,987 1614,986 1544,830 " style="fill:rgb(72, 239, 73);stroke-width:none"/>
	<polygon points="1404,939 1448,987 1419,855 " style="fill:rgb(102, 235, 110);stroke-width:none"/>
	<polygon points="1448,987 1544,830 1419,855 " style="fill:rgb(67, 240, 71);stroke-width:none"/>
	<polygon points="1313,1080 1247,1078 1115,1080 " style="fill:rgb(232, 214, 255);stroke-width:none"/>
	<polygon points="1404,939 1313,1080 1423,1080 " style="fill:rgb(178, 222, 195);stroke-width:none"/>
	<polygon points="1247,1078 1313,1080 1404,939 " style="fill:rgb(201, 218, 222);stroke-width:none"/>
	<polygon points="1697,1080 1736,1029 1636,964 " style="fill:rgb(2, 246, 0);stroke-width:none"/>
	<polygon points="1753,1080 1736,1029 1697,1080 " style="fill:rgb(0, 249, 0);stroke-width:none"/>
	<polygon points="1736,1029 1753,1080 1802,1011 " style="fill:rgb(0, 253, 0);stroke-width:none"/>
	<polygon points="1828,846 1920,906 1900,762 " style="fill:rgb(17, 249, 17);stroke-width:none"/>
	<polygon points="1182,32 1109,119 1186,41 " style="fill:rgb(255, 202, 255);stroke-width:none"/>
	<polygon points="1182,32 1124,0 1109,119 " style="fill:rgb(255, 201, 255);stroke-width:none"/>
	<polygon points="1247,494 1188,438 1213,523 " style="fill:rgb(255, 204, 255);stroke-width:none"/>
	<polygon points="1285,507 1247,494 1213,523 " style="fill:rgb(223, 211, 232);stroke-width:none"/>
	<polygon points="1188,438 1247,494 1263,336 " style="fill:rgb(255, 204, 255);stroke-width:none"/>
	<polygon points="1247,494 1369,391 1263,336 " style="fill:rgb(246, 207, 255);stroke-width:none"/>
	<polygon points="1247,494 1285,507 1369,391 " style="fill:rgb(244, 207, 255);stroke-width:none"/>
	<polygon points="1386,523 1285,507 1369,554 " style="fill:rgb(180, 219, 188);stroke-width:none"/>
	<polygon points="1499,378 1386,523 1570,499 " style="fill:rgb(201, 217, 217);stroke-width:none"/>
	<polygon points="1546,583 1386,523 1369,554 " style="fill:rgb(141, 227, 150);stroke-width:none"/>
	<polygon points="1386,523 1546,583 1570,499 " style="fill:rgb(150, 226, 163);stroke-width:none"/>
	<polygon points="1285,507 1294,612 1369,554 " style="fill:rgb(146, 225, 151);stroke-width:none"/>
	<polygon points="1294,612 1285,507 1216,587 " style="fill:rgb(137, 226, 139);stroke-width:none"/>
	<polygon points="1369,554 1294,612 1364,660 " style="fill:rgb(94, 235, 95);stroke-width:none"/>
	<polygon points="1006,366 1006,394 1086,356 " style="fill:rgb(255, 198, 255);stroke-width:none"/>
	<polygon points="1007,332 1006,366 1086,356 " style="fill:rgb(255, 198, 255);stroke-width:none"/>
	<polygon points="1006,366 829,337 1006,394 " style="fill:rgb(255, 196, 255);stroke-width:none"/>
	<polygon points="1006,366 1007,332 829,337 " style="fill:rgb(255, 196, 255);stroke-width:none"/>
	<polygon points="1188,438 1175,525 1213,523 " style="fill:rgb(251, 205, 255);stroke-width:none"/>
	<polygon points="1175,525 1216,587 1213,523 " style="fill:rgb(173, 219, 176);stroke-width:none"/>
	<polygon points="1175,525 1141,579 1216,587 " style="fill:rgb(150, 223, 151);stroke-width:none"/>
	<polygon points="967,690 979,709 1101,691 " style="fill:rgb(51, 240, 41);stroke-width:none"/>
	<polygon points="1141,579 967,690 1101,691 " style="fill:rgb(69, 236, 60);stroke-width:none"/>
	<polygon points="967,690 959,760 979,709 " style="fill:rgb(48, 240, 38);stroke-width:none"/>
	<polygon points="1790,466 1677,371 1570,499 " style="fill:rgb(143, 230, 163);stroke-width:none"/>
	<polygon points="1745,643 1790,466 1590,599 " style="fill:rgb(109, 237, 130);stroke-width:none"/>
	<polygon points="1790,466 1570,499 1590,599 " style="fill:rgb(135, 231, 154);stroke-width:none"/>
	<polygon points="1677,371 1790,466 1761,374 " style="fill:rgb(121, 235, 142);stroke-width:none"/>
	<polygon points="1790,466 1745,643 1856,509 " style="fill:rgb(105, 240, 130);stroke-width:none"/>
	<polygon points="1858,483 1790,466 1856,509 " style="fill:rgb(87, 242, 110);stroke-width:none"/>
	<polygon points="1790,466 1917,431 1761,374 " style="fill:rgb(92, 241, 114);stroke-width:none"/>
	<polygon points="1917,431 1790,466 1858,483 " style="fill:rgb(79, 244, 102);stroke-width:none"/>
	<polygon points="1570,499 1571,565 1590,599 " style="fill:rgb(126, 232, 141);stroke-width:none"/>
	<polygon points="1571,565 1546,583 1590,599 " style="fill:rgb(108, 235, 122);stroke-width:none"/>
	<polygon points="1546,583 1571,565 1570,499 " style="fill:rgb(131, 231, 146);stroke-width:none"/>
	<polygon points="402,909 267,777 163,968 " style="fill:rgb(102, 220, 63);stroke-width:none"/>
	<polygon points="371,726 267,777 402,909 " style="fill:rgb(127, 222, 108);stroke-width:none"/>
	<polygon points="267,777 371,726 293,720 " style="fill:rgb(155, 219, 146);stroke-width:none"/>
	<polygon points="126,802 267,777 175,754 " style="fill:rgb(167, 215, 152);stroke-width:none"/>
	<polygon points="267,777 130,934 163,968 " style="fill:rgb(84, 220, 32);stroke-width:none"/>
	<polygon points="267,777 126,802 130,934 " style="fill:rgb(129, 217, 96);stroke-width:none"/>
	<polygon points="226,725 150,582 175,754 " style="fill:rgb(213, 210, 215);stroke-width:none"/>
	<polygon points="267,777 226,725 175,754 " style="fill:rgb(173, 215, 163);stroke-width:none"/>
	<polygon points="226,725 306,582 150,582 " style="fill:rgb(220, 210, 225);stroke-width:none"/>
	<polygon points="306,582 226,725 293,720 " style="fill:rgb(191, 214, 190);stroke-width:none"/>
	<polygon points="559,1020 608,992 488,941 " style="fill:rgb(193, 208, 176);stroke-width:none"/>
	<polygon points="608,992 623,910 488,941 " style="fill:rgb(167, 215, 152);stroke-width:none"/>
	<polygon points="608,992 684,983 623,910 " style="fill:rgb(194, 212, 188);stroke-width:none"/>
	<polygon points="590,633 585,562 393,595 " style="fill:rgb(180, 215, 176);stroke-width:none"/>
	<polygon points="371,726 590,633 393,595 " style="fill:rgb(157, 220, 152);stroke-width:none"/>
	<polygon points="751,801 847,912 839,780 " style="fill:rgb(86, 233, 80);stroke-width:none"/>
	<polygon points="751,801 684,983 847,912 " style="fill:rgb(141, 224, 139);stroke-width:none"/>
	<polygon points="684,983 751,801 623,910 " style="fill:rgb(138, 223, 132);stroke-width:none"/>
	<polygon points="623,910 582,766 488,941 " style="fill:rgb(118, 224, 103);stroke-width:none"/>
	<polygon points="582,766 402,909 488,941 " style="fill:rgb(117, 223, 97);stroke-width:none"/>
	<polygon points="582,766 371,726 402,909 " style="fill:rgb(113, 225, 97);stroke-width:none"/>
	<polygon points="582,766 590,633 371,726 " style="fill:rgb(118, 226, 108);stroke-width:none"/>
	<polygon points="751,801 582,766 623,910 " style="fill:rgb(95, 230, 84);stroke-width:none"/>
	<polygon points="0,183 54,0 0,0 " style="fill:rgb(215, 209, 214);stroke-width:none"/>
	<polygon points="67,0 54,0 0,183 " style="fill:rgb(215, 209, 214);stroke-width:none"/>
	<polygon points="102,0 178,106 223,0 " style="fill:rgb(240, 204, 239);stroke-width:none"/>
	<polygon points="102,0 67,0 178,106 " style="fill:rgb(229, 206, 228);stroke-width:none"/>
	<polygon points="1078,820 847,912 1107,884 " style="fill:rgb(106, 232, 109);stroke-width:none"/>
	<polygon points="1078,820 959,760 847,912 " style="fill:rgb(76, 237, 72);stroke-width:none"/>
	<polygon points="1078,820 1247,692 1101,691 " style="fill:rgb(36, 243, 29);stroke-width:none"/>
	<polygon points="1247,692 1078,820 1107,884 " style="fill:rgb(47, 242, 44);stroke-width:none"/>
	<polygon points="979,709 1078,820 1101,691 " style="fill:rgb(40, 242, 32);stroke-width:none"/>
	<polygon points="959,760 1078,820 979,709 " style="fill:rgb(45, 241, 37);stroke-width:none"/>
	<polygon points="35,261 123,347 71,252 " style="fill:rgb(220, 208, 218);stroke-width:none"/>
	<polygon points="123,347 35,261 64,679 " style="fill:rgb(219, 208, 218);stroke-width:none"/>
	<polygon points="150,582 123,347 64,679 " style="fill:rgb(245, 205, 252);stroke-width:none"/>
	<polygon points="585,562 520,371 393,595 " style="fill:rgb(255, 199, 255);stroke-width:none"/>
	<polygon points="765,243 723,305 784,353 " style="fill:rgb(255, 194, 255);stroke-width:none"/>
	<polygon points="738,232 723,305 765,243 " style="fill:rgb(255, 194, 255);stroke-width:none"/>
	<polygon points="520,371 723,305 644,257 " style="fill:rgb(255, 194, 255);stroke-width:none"/>
	<polygon points="723,305 585,562 784,353 " style="fill:rgb(255, 194, 255);stroke-width:none"/>
	<polygon points="723,305 520,371 585,562 " style="fill:rgb(255, 194, 255);stroke-width:none"/>
	<polygon points="692,227 738,232 671,211 " style="fill:rgb(255, 194, 255);stroke-width:none"/>
	<polygon points="644,257 692,227 671,211 " style="fill:rgb(255, 194, 255);stroke-width:none"/>
	<polygon points="692,227 723,305 738,232 " style="fill:rgb(255, 194, 255);stroke-width:none"/>
	<polygon points="723,305 692,227 644,257 " style="fill:rgb(255, 194, 255);stroke-width:none"/>
	<polygon points="1469,1080 1448,987 1423,1080 " style="fill:rgb(148, 226, 159);stroke-width:none"/>
	<polygon points="1894,722 1920,609 1882,664 " style="fill:rgb(100, 242, 131);stroke-width:none"/>
	<polygon points="1920,609 1894,722 1900,762 " style="fill:rgb(93, 242, 120);stroke-width:none"/>
	<polygon points="1920,906 1920,609 1900,762 " style="fill:rgb(68, 245, 86);stroke-width:none"/>
	<polygon points="1919,439 1920,609 1920,0 " style="fill:rgb(76, 244, 99);stroke-width:none"/>
	<polygon points="1841,1050 1753,1080 1920,1080 " style="fill:rgb(0, 255, 0);stroke-width:none"/>
	<polygon points="1753,1080 1841,1050 1802,1011 " style="fill:rgb(0, 255, 0);stroke-width:none"/>
	<polygon points="1920,935 1841,1050 1920,1080 " style="fill:rgb(0, 255, 0);stroke-width:none"/>
	<polygon points="1841,1050 1920,935 1802,1011 " style="fill:rgb(0, 255, 0);stroke-width:none"/>
	<polygon points="1811,909 1920,935 1920,906 " style="fill:rgb(0, 255, 0);stroke-width:none"/>
	<polygon points="1828,846 1811,909 1920,906 " style="fill:rgb(0, 253, 0);stroke-width:none"/>
	<polygon points="1920,935 1811,909 1802,1011 " style="fill:rgb(0, 255, 0);stroke-width:none"/>
	<polygon points="1811,909 1736,1029 1802,1011 " style="fill:rgb(0, 255, 0);stroke-width:none"/>
	<polygon points="1736,1029 1811,909 1636,964 " style="fill:rgb(0, 249, 0);stroke-width:none"/>
	<polygon points="1894,722 1791,792 1900,762 " style="fill:rgb(69, 245, 87);stroke-width:none"/>
	<polygon points="1791,792 1828,846 1900,762 " style="fill:rgb(44, 247, 53);stroke-width:none"/>
	<polygon points="1791,792 1882,664 1745,643 " style="fill:rgb(83, 243, 106);stroke-width:none"/>
	<polygon points="1791,792 1894,722 1882,664 " style="fill:rgb(82, 243, 106);stroke-width:none"/>
	<polygon points="1791,792 1745,643 1631,758 " style="fill:rgb(62, 245, 77);stroke-width:none"/>
	<polygon points="1791,792 1811,909 1828,846 " style="fill:rgb(15, 249, 12);stroke-width:none"/>
	<polygon points="1636,964 1791,792 1631,758 " style="fill:rgb(31, 247, 33);stroke-width:none"/>
	<polygon points="1811,909 1791,792 1636,964 " style="fill:rgb(5, 249, 0);stroke-width:none"/>
	<polygon points="1713,0 1750,10 1920,0 " style="fill:rgb(102, 239, 124);stroke-width:none"/>
	<polygon points="1677,371 1704,73 1559,374 " style="fill:rgb(154, 227, 173);stroke-width:none"/>
	<polygon points="1704,73 1750,10 1713,0 " style="fill:rgb(128, 233, 148);stroke-width:none"/>
	<polygon points="1182,32 1304,0 1124,0 " style="fill:rgb(255, 203, 255);stroke-width:none"/>
	<polygon points="1304,0 1182,32 1186,41 " style="fill:rgb(255, 204, 255);stroke-width:none"/>
	<polygon points="1304,0 1186,41 1225,110 " style="fill:rgb(255, 205, 255);stroke-width:none"/>
	<polygon points="1285,507 1377,416 1369,391 " style="fill:rgb(235, 209, 248);stroke-width:none"/>
	<polygon points="1386,523 1377,416 1285,507 " style="fill:rgb(234, 210, 247);stroke-width:none"/>
	<polygon points="1377,416 1499,378 1369,391 " style="fill:rgb(219, 213, 234);stroke-width:none"/>
	<polygon points="1377,416 1386,523 1499,378 " style="fill:rgb(218, 213, 232);stroke-width:none"/>
	<polygon points="1283,617 1216,587 1247,692 " style="fill:rgb(78, 236, 75);stroke-width:none"/>
	<polygon points="1283,617 1294,612 1216,587 " style="fill:rgb(100, 233, 99);stroke-width:none"/>
	<polygon points="1283,617 1247,692 1364,660 " style="fill:rgb(60, 240, 58);stroke-width:none"/>
	<polygon points="1294,612 1283,617 1364,660 " style="fill:rgb(78, 237, 77);stroke-width:none"/>
	<polygon points="1086,492 967,690 1141,579 " style="fill:rgb(129, 225, 125);stroke-width:none"/>
	<polygon points="967,690 1086,492 867,543 " style="fill:rgb(151, 221, 147);stroke-width:none"/>
	<polygon points="867,543 1086,492 1006,394 " style="fill:rgb(255, 197, 255);stroke-width:none"/>
	<polygon points="1175,525 1086,492 1141,579 " style="fill:rgb(198, 214, 201);stroke-width:none"/>
	<polygon points="1086,492 1175,525 1188,438 " style="fill:rgb(255, 201, 255);stroke-width:none"/>
	<polygon points="1086,492 1188,438 1086,356 " style="fill:rgb(255, 200, 255);stroke-width:none"/>
	<polygon points="1006,394 1086,492 1086,356 " style="fill:rgb(255, 199, 255);stroke-width:none"/>
	<polygon points="967,690 852,778 959,760 " style="fill:rgb(50, 240, 39);stroke-width:none"/>
	<polygon points="847,912 852,778 839,780 " style="fill:rgb(79, 235, 73);stroke-width:none"/>
	<polygon points="959,760 852,778 847,912 " style="fill:rgb(72, 236, 66);stroke-width:none"/>
	<polygon points="226,725 265,749 293,720 " style="fill:rgb(172, 216, 166);stroke-width:none"/>
	<polygon points="265,749 226,725 267,777 " style="fill:rgb(166, 216, 157);stroke-width:none"/>
	<polygon points="371,726 356,704 293,720 " style="fill:rgb(157, 219, 150);stroke-width:none"/>
	<polygon points="356,704 306,582 293,720 " style="fill:rgb(182, 216, 180);stroke-width:none"/>
	<polygon points="356,704 371,726 393,595 " style="fill:rgb(165, 218, 161);stroke-width:none"/>
	<polygon points="306,582 356,704 393,595 " style="fill:rgb(192, 214, 192);stroke-width:none"/>
	<polygon points="684,983 615,1014 684,1080 " style="fill:rgb(232, 206, 231);stroke-width:none"/>
	<polygon points="608,992 615,1014 684,983 " style="fill:rgb(225, 206, 220);stroke-width:none"/>
	<polygon points="615,1014 559,1020 684,1080 " style="fill:rgb(220, 206, 213);stroke-width:none"/>
	<polygon points="615,1014 608,992 559,1020 " style="fill:rgb(211, 207, 200);stroke-width:none"/>
	<polygon points="590,633 741,584 585,562 " style="fill:rgb(167, 217, 162);stroke-width:none"/>
	<polygon points="585,562 741,584 784,353 " style="fill:rgb(255, 197, 255);stroke-width:none"/>
	<polygon points="178,106 281,139 223,0 " style="fill:rgb(252, 202, 251);stroke-width:none"/>
	<polygon points="355,0 281,139 378,198 " style="fill:rgb(255, 198, 255);stroke-width:none"/>
	<polygon points="496,134 574,203 544,0 " style="fill:rgb(255, 195, 255);stroke-width:none"/>
	<polygon points="496,134 355,0 378,198 " style="fill:rgb(255, 197, 255);stroke-width:none"/>
	<polygon points="462,203 496,134 378,198 " style="fill:rgb(255, 196, 255);stroke-width:none"/>
	<polygon points="520,237 644,257 574,203 " style="fill:rgb(255, 194, 255);stroke-width:none"/>
	<polygon points="520,237 520,371 644,257 " style="fill:rgb(255, 194, 255);stroke-width:none"/>
	<polygon points="496,134 520,237 574,203 " style="fill:rgb(255, 195, 255);stroke-width:none"/>
	<polygon points="520,237 496,134 462,203 " style="fill:rgb(255, 195, 255);stroke-width:none"/>
	<polygon points="1448,987 1489,1080 1533,1080 " style="fill:rgb(126, 229, 132);stroke-width:none"/>
	<polygon points="1469,1080 1489,1080 1448,987 " style="fill:rgb(137, 228, 146);stroke-width:none"/>
	<polygon points="1905,603 1919,439 1856,509 " style="fill:rgb(87, 243, 114);stroke-width:none"/>
	<polygon points="1905,603 1920,609 1919,439 " style="fill:rgb(97, 242, 127);stroke-width:none"/>
	<polygon points="1920,609 1905,603 1882,664 " style="fill:rgb(104, 242, 136);stroke-width:none"/>
	<polygon points="1745,643 1905,603 1856,509 " style="fill:rgb(103, 241, 133);stroke-width:none"/>
	<polygon points="1882,664 1905,603 1745,643 " style="fill:rgb(102, 242, 132);stroke-width:none"/>
	<polygon points="1771,98 1810,132 1920,0 " style="fill:rgb(87, 242, 110);stroke-width:none"/>
	<polygon points="1750,10 1771,98 1920,0 " style="fill:rgb(95, 240, 117);stroke-width:none"/>
	<polygon points="1704,73 1771,98 1750,10 " style="fill:rgb(122, 235, 142);stroke-width:none"/>
	<polygon points="1771,98 1677,371 1810,132 " style="fill:rgb(118, 235, 138);stroke-width:none"/>
	<polygon points="1771,98 1704,73 1677,371 " style="fill:rgb(130, 233, 150);stroke-width:none"/>
	<polygon points="267,749 267,777 293,720 " style="fill:rgb(161, 217, 151);stroke-width:none"/>
	<polygon points="265,749 267,749 293,720 " style="fill:rgb(165, 217, 157);stroke-width:none"/>
	<polygon points="267,749 265,749 267,777 " style="fill:rgb(159, 217, 148);stroke-width:none"/>
	<polygon points="326,383 400,250 276,366 " style="fill:rgb(255, 199, 255);stroke-width:none"/>
	<polygon points="400,250 202,295 276,366 " style="fill:rgb(255, 200, 255);stroke-width:none"/>
	<polygon points="202,295 400,250 378,198 " style="fill:rgb(255, 199, 255);stroke-width:none"/>
	<polygon points="400,250 462,203 378,198 " style="fill:rgb(255, 197, 255);stroke-width:none"/>
	<polygon points="400,250 326,383 520,371 " style="fill:rgb(255, 197, 255);stroke-width:none"/>
	<polygon points="204,438 123,347 150,582 " style="fill:rgb(238, 204, 238);stroke-width:none"/>
	<polygon points="211,492 204,438 150,582 " style="fill:rgb(245, 204, 247);stroke-width:none"/>
	<polygon points="757,581 867,543 784,353 " style="fill:rgb(255, 195, 255);stroke-width:none"/>
	<polygon points="741,584 757,581 784,353 " style="fill:rgb(255, 199, 255);stroke-width:none"/>
	<polygon points="754,650 741,584 590,633 " style="fill:rgb(133, 223, 125);stroke-width:none"/>
	<polygon points="582,766 754,650 590,633 " style="fill:rgb(103, 229, 93);stroke-width:none"/>
	<polygon points="754,650 582,766 751,801 " style="fill:rgb(78, 233, 66);stroke-width:none"/>
	<polygon points="754,650 757,581 741,584 " style="fill:rgb(142, 222, 135);stroke-width:none"/>
	<polygon points="754,650 751,801 839,780 " style="fill:rgb(66, 236, 54);stroke-width:none"/>
	<polygon points="852,778 754,650 839,780 " style="fill:rgb(62, 237, 50);stroke-width:none"/>
	<polygon points="757,581 754,650 867,543 " style="fill:rgb(151, 220, 144);stroke-width:none"/>
	<polygon points="754,650 967,690 867,543 " style="fill:rgb(107, 228, 98);stroke-width:none"/>
	<polygon points="754,650 852,778 967,690 " style="fill:rgb(62, 237, 51);stroke-width:none"/>
	<polygon points="281,139 336,0 223,0 " style="fill:rgb(255, 200, 255);stroke-width:none"/>
	<polygon points="336,0 281,139 355,0 " style="fill:rgb(255, 199, 255);stroke-width:none"/>
	<polygon points="231,173 281,139 178,106 " style="fill:rgb(252, 202, 252);stroke-width:none"/>
	<polygon points="231,173 178,106 71,252 " style="fill:rgb(238, 204, 238);stroke-width:none"/>
	<polygon points="202,295 231,173 71,252 " style="fill:rgb(240, 204, 239);stroke-width:none"/>
	<polygon points="231,173 202,295 378,198 " style="fill:rgb(255, 200, 255);stroke-width:none"/>
	<polygon points="281,139 231,173 378,198 " style="fill:rgb(255, 200, 255);stroke-width:none"/>
	<polygon points="459,0 496,134 544,0 " style="fill:rgb(255, 195, 255);stroke-width:none"/>
	<polygon points="496,134 459,0 355,0 " style="fill:rgb(255, 196, 255);stroke-width:none"/>
	<polygon points="1565,45 1713,0 1422,0 " style="fill:rgb(178, 222, 196);stroke-width:none"/>
	<polygon points="1430,22 1565,45 1422,0 " style="fill:rgb(205, 216, 220);stroke-width:none"/>
	<polygon points="1565,45 1704,73 1713,0 " style="fill:rgb(149, 228, 168);stroke-width:none"/>
	<polygon points="1704,73 1565,45 1559,374 " style="fill:rgb(166, 225, 184);stroke-width:none"/>
	<polygon points="1403,271 1220,297 1263,336 " style="fill:rgb(245, 207, 255);stroke-width:none"/>
	<polygon points="1220,297 1403,271 1225,110 " style="fill:rgb(248, 206, 255);stroke-width:none"/>
	<polygon points="1369,391 1403,271 1263,336 " style="fill:rgb(235, 209, 248);stroke-width:none"/>
	<polygon points="1499,378 1403,271 1369,391 " style="fill:rgb(217, 213, 232);stroke-width:none"/>
	<polygon points="1403,271 1565,45 1430,22 " style="fill:rgb(207, 216, 222);stroke-width:none"/>
	<polygon points="1403,271 1499,378 1559,374 " style="fill:rgb(201, 217, 217);stroke-width:none"/>
	<polygon points="1565,45 1403,271 1559,374 " style="fill:rgb(195, 218, 211);stroke-width:none"/>
	<polygon points="1373,27 1304,0 1225,110 " style="fill:rgb(244, 207, 255);stroke-width:none"/>
	<polygon points="1403,271 1373,27 1225,110 " style="fill:rgb(237, 209, 251);stroke-width:none"/>
	<polygon points="1373,27 1403,271 1430,22 " style="fill:rgb(222, 212, 237);stroke-width:none"/>
	<polygon points="483,264 520,237 462,203 " style="fill:rgb(255, 195, 255);stroke-width:none"/>
	<polygon points="400,250 483,264 462,203 " style="fill:rgb(255, 196, 255);stroke-width:none"/>
	<polygon points="520,237 483,264 520,371 " style="fill:rgb(255, 195, 255);stroke-width:none"/>
	<polygon points="483,264 400,250 520,371 " style="fill:rgb(255, 196, 255);stroke-width:none"/>
	<polygon points="301,457 306,582 393,595 " style="fill:rgb(237, 205, 239);stroke-width:none"/>
	<polygon points="520,371 301,457 393,595 " style="fill:rgb(255, 197, 255);stroke-width:none"/>
	<polygon points="326,383 301,457 520,371 " style="fill:rgb(255, 197, 255);stroke-width:none"/>
	<polygon points="204,438 172,318 123,347 " style="fill:rgb(240, 204, 239);stroke-width:none"/>
	<polygon points="123,347 172,318 71,252 " style="fill:rgb(230, 206, 229);stroke-width:none"/>
	<polygon points="172,318 202,295 71,252 " style="fill:rgb(236, 205, 235);stroke-width:none"/>
	<polygon points="202,295 172,318 276,366 " style="fill:rgb(250, 202, 249);stroke-width:none"/>
	<polygon points="172,318 204,438 276,366 " style="fill:rgb(250, 202, 250);stroke-width:none"/>
	<polygon points="1373,27 1331,0 1304,0 " style="fill:rgb(237, 209, 250);stroke-width:none"/>
	<polygon points="306,582 254,528 150,582 " style="fill:rgb(237, 206, 242);stroke-width:none"/>
	<polygon points="254,528 211,492 150,582 " style="fill:rgb(245, 205, 249);stroke-width:none"/>
	<polygon points="254,528 246,500 211,492 " style="fill:rgb(250, 203, 252);stroke-width:none"/>
	<polygon points="246,500 274,455 211,492 " style="fill:rgb(255, 201, 255);stroke-width:none"/>
	<polygon points="274,455 204,438 211,492 " style="fill:rgb(252, 202, 252);stroke-width:none"/>
	<polygon points="204,438 274,455 276,366 " style="fill:rgb(255, 201, 255);stroke-width:none"/>
	<polygon points="274,455 326,383 276,366 " style="fill:rgb(255, 200, 255);stroke-width:none"/>
	<polygon points="274,455 301,457 326,383 " style="fill:rgb(255, 199, 255);stroke-width:none"/>
	<polygon points="1408,0 1331,0 1373,27 " style="fill:rgb(229, 211, 243);stroke-width:none"/>
	<polygon points="1408,0 1373,27 1430,22 " style="fill:rgb(222, 212, 236);stroke-width:none"/>
	<polygon points="254,528 288,465 246,500 " style="fill:rgb(255, 201, 255);stroke-width:none"/>
	<polygon points="288,465 274,455 246,500 " style="fill:rgb(255, 200, 255);stroke-width:none"/>
	<polygon points="274,455 288,465 301,457 " style="fill:rgb(255, 200, 255);stroke-width:none"/>
	<polygon points="301,457 288,465 306,582 " style="fill:rgb(255, 201, 255);stroke-width:none"/>
	<polygon points="288,465 254,528 306,582 " style="fill:rgb(247, 204, 250);stroke-width:none"/>
	<polygon points="1419,0 1430,22 1422,0 " style="fill:rgb(217, 213, 232);stroke-width:none"/>
	<polygon points="1419,0 1408,0 1430,22 " style="fill:rgb(218, 213, 233);stroke-width:none"/>
</svg>