<?xml version="1.0" encoding="utf-8"?>
<svg version="1.1" id="Layer_1" xmlns="http://www.w3.org/2000/svg" xmlns:xlink="http://www.w3.org/1999/xlink" height="1080" width="1920">
	<polygon points="64,884 2,697 0,1080 " style="fill:rgb(108, 0, 0);stroke-width:none"/>
	<polygon points="145,1015 0,1080 101,1080 " style="fill:rgb(70, 0, 0);stroke-width:none"/>
	<polygon points="145,1015 64,884 0,1080 " style="fill:rgb(85, 0, 0);stroke-width:none"/>
	<polygon points="2,603 131,388 29,245 " style="fill:rgb(179, 211, 211);stroke-width:none"/>
	<polygon points="7,73 2,603 29,245 " style="fill:rgb(188, 237, 232);stroke-width:none"/>
	<polygon points="2,603 7,73 0,0 " style="fill:rgb(194, 247, 241);stroke-width:none"/>
	<polygon points="0,1080 2,603 0,0 " style="fill:rgb(161, 152, 160);stroke-width:none"/>
	<polygon points="2,697 2,603 0,1080 " style="fill:rgb(125, 8, 36);stroke-width:none"/>
	<polygon points="2,603 226,467 131,388 " style="fill:rgb(171, 185, 189);stroke-width:none"/>
	<polygon points="633,0 575,14 645,57 " style="fill:rgb(157, 0, 0);stroke-width:none"/>
	<polygon points="370,1080 643,1080 413,1058 " style="fill:rgb(148, 251, 253);stroke-width:none"/>
	<polygon points="226,467 254,612 316,504 " style="fill:rgb(167, 158, 164);stroke-width:none"/>
	<polygon points="254,612 2,603 2,697 " style="fill:rgb(151, 112, 126);stroke-width:none"/>
	<polygon points="254,612 226,467 2,603 " style="fill:rgb(162, 152, 160);stroke-width:none"/>
	<polygon points="64,884 170,792 2,697 " style="fill:rgb(126, 10, 38);stroke-width:none"/>
	<polygon points="170,792 254,612 2,697 " style="fill:rgb(141, 76, 94);stroke-width:none"/>
	<polygon points="737,124 951,270 866,81 " style="fill:rgb(123, 0, 0);stroke-width:none"/>
	<polygon points="951,270 737,124 750,363 " style="fill:rgb(155, 0, 0);stroke-width:none"/>
	<polygon points="464,561 373,441 316,504 " style="fill:rgb(171, 153, 159);stroke-width:none"/>
	<polygon points="131,388 237,237 29,245 " style="fill:rgb(189, 240, 234);stroke-width:none"/>
	<polygon points="7,73 95,91 0,0 " style="fill:rgb(201, 246, 238);stroke-width:none"/>
	<polygon points="697,11 633,0 645,57 " style="fill:rgb(148, 0, 0);stroke-width:none"/>
	<polygon points="697,11 731,7 633,0 " style="fill:rgb(141, 0, 0);stroke-width:none"/>
	<polygon points="737,124 697,11 645,57 " style="fill:rgb(139, 0, 0);stroke-width:none"/>
	<polygon points="697,11 737,124 731,7 " style="fill:rgb(132, 0, 0);stroke-width:none"/>
	<polygon points="806,0 737,124 866,81 " style="fill:rgb(107, 0, 0);stroke-width:none"/>
	<polygon points="737,124 806,0 731,7 " style="fill:rgb(121, 0, 0);stroke-width:none"/>
	<polygon points="731,7 806,0 633,0 " style="fill:rgb(131, 0, 0);stroke-width:none"/>
	<polygon points="370,1080 210,1073 101,1080 " style="fill:rgb(103, 0, 10);stroke-width:none"/>
	<polygon points="210,1073 145,1015 101,1080 " style="fill:rgb(78, 0, 0);stroke-width:none"/>
	<polygon points="705,906 776,699 673,729 " style="fill:rgb(169, 207, 208);stroke-width:none"/>
	<polygon points="548,923 506,738 396,855 " style="fill:rgb(160, 214, 217);stroke-width:none"/>
	<polygon points="1039,899 947,952 974,1080 " style="fill:rgb(67, 0, 0);stroke-width:none"/>
	<polygon points="947,952 727,1050 974,1080 " style="fill:rgb(80, 0, 0);stroke-width:none"/>
	<polygon points="1641,404 1733,501 1759,407 " style="fill:rgb(236, 255, 255);stroke-width:none"/>
	<polygon points="1870,590 1920,576 1920,516 " style="fill:rgb(255, 255, 255);stroke-width:none"/>
	<polygon points="1715,1080 1547,948 1438,1080 " style="fill:rgb(0, 0, 0);stroke-width:none"/>
	<polygon points="1547,948 1614,928 1566,760 " style="fill:rgb(0, 0, 0);stroke-width:none"/>
	<polygon points="1507,319 1599,253 1547,257 " style="fill:rgb(83, 0, 0);stroke-width:none"/>
	<polygon points="1599,253 1507,319 1641,404 " style="fill:rgb(138, 0, 0);stroke-width:none"/>
	<polygon points="951,270 1070,124 866,81 " style="fill:rgb(97, 0, 0);stroke-width:none"/>
	<polygon points="866,81 1070,124 985,0 " style="fill:rgb(45, 0, 0);stroke-width:none"/>
	<polygon points="970,299 1090,380 1119,144 " style="fill:rgb(138, 0, 0);stroke-width:none"/>
	<polygon points="1070,124 970,299 1119,144 " style="fill:rgb(93, 0, 0);stroke-width:none"/>
	<polygon points="970,299 1070,124 951,270 " style="fill:rgb(125, 0, 0);stroke-width:none"/>
	<polygon points="970,299 951,270 962,334 " style="fill:rgb(156, 0, 0);stroke-width:none"/>
	<polygon points="1090,380 970,299 962,334 " style="fill:rgb(165, 0, 1);stroke-width:none"/>
	<polygon points="1090,380 1148,154 1119,144 " style="fill:rgb(103, 0, 0);stroke-width:none"/>
	<polygon points="1303,181 1148,154 1090,380 " style="fill:rgb(101, 0, 0);stroke-width:none"/>
	<polygon points="1227,438 1303,181 1090,380 " style="fill:rgb(158, 0, 0);stroke-width:none"/>
	<polygon points="951,270 839,425 962,334 " style="fill:rgb(169, 10, 29);stroke-width:none"/>
	<polygon points="839,425 951,270 750,363 " style="fill:rgb(172, 38, 54);stroke-width:none"/>
	<polygon points="254,612 382,605 316,504 " style="fill:rgb(165, 153, 160);stroke-width:none"/>
	<polygon points="382,605 464,561 316,504 " style="fill:rgb(168, 156, 163);stroke-width:none"/>
	<polygon points="598,518 464,561 534,614 " style="fill:rgb(173, 168, 172);stroke-width:none"/>
	<polygon points="598,518 799,504 750,363 " style="fill:rgb(180, 142, 147);stroke-width:none"/>
	<polygon points="464,561 598,518 373,441 " style="fill:rgb(173, 152, 158);stroke-width:none"/>
	<polygon points="237,237 101,168 29,245 " style="fill:rgb(194, 248, 241);stroke-width:none"/>
	<polygon points="101,168 7,73 29,245 " style="fill:rgb(197, 250, 243);stroke-width:none"/>
	<polygon points="101,168 95,91 7,73 " style="fill:rgb(200, 249, 241);stroke-width:none"/>
	<polygon points="237,237 311,242 238,206 " style="fill:rgb(191, 201, 199);stroke-width:none"/>
	<polygon points="226,467 240,366 131,388 " style="fill:rgb(178, 194, 195);stroke-width:none"/>
	<polygon points="240,366 237,237 131,388 " style="fill:rgb(185, 208, 207);stroke-width:none"/>
	<polygon points="311,242 240,366 356,397 " style="fill:rgb(182, 174, 176);stroke-width:none"/>
	<polygon points="240,366 311,242 237,237 " style="fill:rgb(187, 194, 193);stroke-width:none"/>
	<polygon points="311,242 440,39 238,206 " style="fill:rgb(193, 177, 177);stroke-width:none"/>
	<polygon points="894,0 876,35 985,0 " style="fill:rgb(66, 0, 0);stroke-width:none"/>
	<polygon points="876,35 866,81 985,0 " style="fill:rgb(70, 0, 0);stroke-width:none"/>
	<polygon points="389,1003 370,1080 413,1058 " style="fill:rgb(142, 207, 214);stroke-width:none"/>
	<polygon points="210,1073 194,1008 145,1015 " style="fill:rgb(94, 0, 0);stroke-width:none"/>
	<polygon points="170,792 365,927 396,855 " style="fill:rgb(143, 133, 146);stroke-width:none"/>
	<polygon points="194,1008 365,927 170,792 " style="fill:rgb(127, 59, 82);stroke-width:none"/>
	<polygon points="365,927 194,1008 366,972 " style="fill:rgb(134, 125, 140);stroke-width:none"/>
	<polygon points="727,1050 700,1080 974,1080 " style="fill:rgb(93, 0, 0);stroke-width:none"/>
	<polygon points="432,991 389,1003 413,1058 " style="fill:rgb(146, 217, 222);stroke-width:none"/>
	<polygon points="1322,1080 1165,1043 974,1080 " style="fill:rgb(0, 0, 0);stroke-width:none"/>
	<polygon points="1322,1080 1438,1080 1442,947 " style="fill:rgb(0, 0, 0);stroke-width:none"/>
	<polygon points="1133,1039 1039,899 974,1080 " style="fill:rgb(19, 0, 0);stroke-width:none"/>
	<polygon points="1165,1043 1133,1039 974,1080 " style="fill:rgb(0, 0, 0);stroke-width:none"/>
	<polygon points="1133,1039 1165,1043 1039,899 " style="fill:rgb(0, 0, 0);stroke-width:none"/>
	<polygon points="623,923 720,988 705,906 " style="fill:rgb(150, 175, 183);stroke-width:none"/>
	<polygon points="720,988 623,923 643,1080 " style="fill:rgb(144, 170, 180);stroke-width:none"/>
	<polygon points="872,844 776,699 705,906 " style="fill:rgb(162, 171, 177);stroke-width:none"/>
	<polygon points="720,988 872,844 705,906 " style="fill:rgb(146, 119, 133);stroke-width:none"/>
	<polygon points="872,844 720,988 947,952 " style="fill:rgb(129, 8, 35);stroke-width:none"/>
	<polygon points="1429,818 1547,948 1566,760 " style="fill:rgb(0, 0, 0);stroke-width:none"/>
	<polygon points="1165,1043 1302,881 1039,899 " style="fill:rgb(19, 0, 0);stroke-width:none"/>
	<polygon points="1302,881 1307,758 1039,899 " style="fill:rgb(87, 0, 0);stroke-width:none"/>
	<polygon points="1322,1080 1302,881 1165,1043 " style="fill:rgb(0, 0, 0);stroke-width:none"/>
	<polygon points="1302,881 1322,1080 1442,947 " style="fill:rgb(0, 0, 0);stroke-width:none"/>
	<polygon points="1307,758 1012,660 1039,899 " style="fill:rgb(150, 4, 27);stroke-width:none"/>
	<polygon points="1593,646 1566,760 1826,801 " style="fill:rgb(112, 0, 0);stroke-width:none"/>
	<polygon points="1870,590 1593,646 1826,801 " style="fill:rgb(174, 0, 0);stroke-width:none"/>
	<polygon points="1733,501 1593,646 1870,590 " style="fill:rgb(250, 255, 255);stroke-width:none"/>
	<polygon points="1593,646 1599,536 1587,549 " style="fill:rgb(239, 255, 255);stroke-width:none"/>
	<polygon points="1599,536 1593,646 1733,501 " style="fill:rgb(247, 255, 255);stroke-width:none"/>
	<polygon points="1771,476 1870,590 1920,516 " style="fill:rgb(255, 255, 255);stroke-width:none"/>
	<polygon points="1771,476 1733,501 1870,590 " style="fill:rgb(255, 255, 255);stroke-width:none"/>
	<polygon points="1733,501 1771,476 1759,407 " style="fill:rgb(252, 255, 255);stroke-width:none"/>
	<polygon points="1920,799 1920,724 1826,801 " style="fill:rgb(19, 0, 0);stroke-width:none"/>
	<polygon points="1900,628 1870,590 1826,801 " style="fill:rgb(179, 0, 0);stroke-width:none"/>
	<polygon points="1920,702 1900,628 1826,801 " style="fill:rgb(128, 0, 0);stroke-width:none"/>
	<polygon points="1919,812 1920,875 1920,799 " style="fill:rgb(0, 0, 0);stroke-width:none"/>
	<polygon points="1919,812 1920,799 1826,801 " style="fill:rgb(0, 0, 0);stroke-width:none"/>
	<polygon points="1920,875 1919,812 1826,801 " style="fill:rgb(0, 0, 0);stroke-width:none"/>
	<polygon points="1438,1080 1459,939 1442,947 " style="fill:rgb(0, 0, 0);stroke-width:none"/>
	<polygon points="1547,948 1459,939 1438,1080 " style="fill:rgb(0, 0, 0);stroke-width:none"/>
	<polygon points="1429,818 1459,939 1547,948 " style="fill:rgb(0, 0, 0);stroke-width:none"/>
	<polygon points="1566,760 1801,842 1826,801 " style="fill:rgb(0, 0, 0);stroke-width:none"/>
	<polygon points="1614,928 1801,842 1566,760 " style="fill:rgb(0, 0, 0);stroke-width:none"/>
	<polygon points="1801,842 1614,928 1752,990 " style="fill:rgb(0, 0, 0);stroke-width:none"/>
	<polygon points="1801,842 1920,875 1826,801 " style="fill:rgb(0, 0, 0);stroke-width:none"/>
	<polygon points="1699,1011 1547,948 1715,1080 " style="fill:rgb(0, 0, 0);stroke-width:none"/>
	<polygon points="1699,1011 1614,928 1547,948 " style="fill:rgb(0, 0, 0);stroke-width:none"/>
	<polygon points="1614,928 1699,1011 1752,990 " style="fill:rgb(0, 0, 0);stroke-width:none"/>
	<polygon points="1507,319 1355,267 1305,445 " style="fill:rgb(161, 0, 0);stroke-width:none"/>
	<polygon points="1355,267 1227,438 1305,445 " style="fill:rgb(184, 83, 92);stroke-width:none"/>
	<polygon points="1227,438 1355,267 1303,181 " style="fill:rgb(130, 0, 0);stroke-width:none"/>
	<polygon points="1355,267 1507,319 1547,257 " style="fill:rgb(99, 0, 0);stroke-width:none"/>
	<polygon points="1507,319 1592,509 1641,404 " style="fill:rgb(210, 231, 223);stroke-width:none"/>
	<polygon points="1592,509 1733,501 1641,404 " style="fill:rgb(245, 255, 255);stroke-width:none"/>
	<polygon points="1592,509 1599,536 1733,501 " style="fill:rgb(252, 255, 255);stroke-width:none"/>
	<polygon points="1599,536 1592,509 1587,549 " style="fill:rgb(247, 255, 255);stroke-width:none"/>
	<polygon points="1687,341 1641,404 1759,407 " style="fill:rgb(196, 145, 147);stroke-width:none"/>
	<polygon points="1687,341 1599,253 1641,404 " style="fill:rgb(143, 0, 0);stroke-width:none"/>
	<polygon points="1067,14 1083,0 985,0 " style="fill:rgb(13, 0, 0);stroke-width:none"/>
	<polygon points="1070,124 1067,14 985,0 " style="fill:rgb(16, 0, 0);stroke-width:none"/>
	<polygon points="1399,111 1355,267 1547,257 " style="fill:rgb(22, 0, 0);stroke-width:none"/>
	<polygon points="1355,267 1399,111 1303,181 " style="fill:rgb(12, 0, 0);stroke-width:none"/>
	<polygon points="1227,135 1148,154 1303,181 " style="fill:rgb(19, 0, 0);stroke-width:none"/>
	<polygon points="358,698 382,605 254,612 " style="fill:rgb(161, 152, 160);stroke-width:none"/>
	<polygon points="358,698 170,792 396,855 " style="fill:rgb(149, 137, 149);stroke-width:none"/>
	<polygon points="170,792 358,698 254,612 " style="fill:rgb(152, 126, 138);stroke-width:none"/>
	<polygon points="506,738 358,698 396,855 " style="fill:rgb(160, 184, 189);stroke-width:none"/>
	<polygon points="464,561 487,678 534,614 " style="fill:rgb(170, 175, 180);stroke-width:none"/>
	<polygon points="382,605 487,678 464,561 " style="fill:rgb(168, 168, 173);stroke-width:none"/>
	<polygon points="358,698 487,678 382,605 " style="fill:rgb(164, 168, 174);stroke-width:none"/>
	<polygon points="615,346 356,397 373,441 " style="fill:rgb(177, 136, 142);stroke-width:none"/>
	<polygon points="598,518 615,346 373,441 " style="fill:rgb(176, 133, 140);stroke-width:none"/>
	<polygon points="615,346 598,518 750,363 " style="fill:rgb(177, 112, 120);stroke-width:none"/>
	<polygon points="615,346 737,124 645,57 " style="fill:rgb(159, 0, 0);stroke-width:none"/>
	<polygon points="737,124 615,346 750,363 " style="fill:rgb(167, 1, 21);stroke-width:none"/>
	<polygon points="615,346 311,242 356,397 " style="fill:rgb(180, 133, 139);stroke-width:none"/>
	<polygon points="615,346 440,39 311,242 " style="fill:rgb(182, 106, 114);stroke-width:none"/>
	<polygon points="598,518 687,664 799,504 " style="fill:rgb(181, 186, 187);stroke-width:none"/>
	<polygon points="687,664 863,585 799,504 " style="fill:rgb(185, 206, 205);stroke-width:none"/>
	<polygon points="863,585 687,664 776,699 " style="fill:rgb(182, 215, 213);stroke-width:none"/>
	<polygon points="776,699 687,664 673,729 " style="fill:rgb(176, 213, 213);stroke-width:none"/>
	<polygon points="687,664 635,713 673,729 " style="fill:rgb(174, 212, 212);stroke-width:none"/>
	<polygon points="687,664 598,518 534,614 " style="fill:rgb(176, 185, 187);stroke-width:none"/>
	<polygon points="635,713 687,664 534,614 " style="fill:rgb(174, 202, 203);stroke-width:none"/>
	<polygon points="204,182 237,237 238,206 " style="fill:rgb(193, 218, 214);stroke-width:none"/>
	<polygon points="204,182 101,168 237,237 " style="fill:rgb(195, 236, 230);stroke-width:none"/>
	<polygon points="440,39 204,182 238,206 " style="fill:rgb(196, 197, 194);stroke-width:none"/>
	<polygon points="307,437 240,366 226,467 " style="fill:rgb(176, 176, 179);stroke-width:none"/>
	<polygon points="240,366 307,437 356,397 " style="fill:rgb(177, 168, 172);stroke-width:none"/>
	<polygon points="307,437 226,467 316,504 " style="fill:rgb(172, 164, 169);stroke-width:none"/>
	<polygon points="373,441 307,437 316,504 " style="fill:rgb(173, 158, 163);stroke-width:none"/>
	<polygon points="356,397 307,437 373,441 " style="fill:rgb(175, 157, 162);stroke-width:none"/>
	<polygon points="440,39 502,0 0,0 " style="fill:rgb(199, 193, 190);stroke-width:none"/>
	<polygon points="872,0 876,35 894,0 " style="fill:rgb(80, 0, 0);stroke-width:none"/>
	<polygon points="319,1042 194,1008 210,1073 " style="fill:rgb(111, 14, 44);stroke-width:none"/>
	<polygon points="194,1008 319,1042 366,972 " style="fill:rgb(128, 103, 122);stroke-width:none"/>
	<polygon points="319,1042 210,1073 370,1080 " style="fill:rgb(125, 107, 126);stroke-width:none"/>
	<polygon points="389,1003 319,1042 370,1080 " style="fill:rgb(138, 180, 190);stroke-width:none"/>
	<polygon points="319,1042 389,1003 366,972 " style="fill:rgb(140, 176, 186);stroke-width:none"/>
	<polygon points="145,1015 159,1000 64,884 " style="fill:rgb(91, 0, 0);stroke-width:none"/>
	<polygon points="194,1008 159,1000 145,1015 " style="fill:rgb(93, 0, 0);stroke-width:none"/>
	<polygon points="159,1000 170,792 64,884 " style="fill:rgb(107, 0, 0);stroke-width:none"/>
	<polygon points="159,1000 194,1008 170,792 " style="fill:rgb(108, 0, 0);stroke-width:none"/>
	<polygon points="863,585 840,513 799,504 " style="fill:rgb(188, 197, 196);stroke-width:none"/>
	<polygon points="481,942 548,923 396,855 " style="fill:rgb(157, 224, 226);stroke-width:none"/>
	<polygon points="365,927 481,942 396,855 " style="fill:rgb(152, 202, 208);stroke-width:none"/>
	<polygon points="546,1002 623,923 548,923 " style="fill:rgb(156, 229, 231);stroke-width:none"/>
	<polygon points="481,942 546,1002 548,923 " style="fill:rgb(156, 236, 238);stroke-width:none"/>
	<polygon points="546,1002 481,942 432,991 " style="fill:rgb(154, 238, 240);stroke-width:none"/>
	<polygon points="546,1002 432,991 413,1058 " style="fill:rgb(151, 239, 242);stroke-width:none"/>
	<polygon points="603,805 635,713 506,738 " style="fill:rgb(169, 213, 214);stroke-width:none"/>
	<polygon points="548,923 603,805 506,738 " style="fill:rgb(164, 221, 222);stroke-width:none"/>
	<polygon points="623,923 603,805 548,923 " style="fill:rgb(161, 224, 226);stroke-width:none"/>
	<polygon points="635,713 603,805 673,729 " style="fill:rgb(171, 215, 216);stroke-width:none"/>
	<polygon points="603,805 705,906 673,729 " style="fill:rgb(166, 213, 215);stroke-width:none"/>
	<polygon points="603,805 623,923 705,906 " style="fill:rgb(160, 211, 214);stroke-width:none"/>
	<polygon points="947,952 725,1023 727,1050 " style="fill:rgb(114, 0, 4);stroke-width:none"/>
	<polygon points="720,988 725,1023 947,952 " style="fill:rgb(121, 2, 31);stroke-width:none"/>
	<polygon points="725,1023 720,988 643,1080 " style="fill:rgb(133, 114, 131);stroke-width:none"/>
	<polygon points="700,1080 725,1023 643,1080 " style="fill:rgb(128, 104, 123);stroke-width:none"/>
	<polygon points="725,1023 700,1080 727,1050 " style="fill:rgb(124, 68, 90);stroke-width:none"/>
	<polygon points="872,844 864,742 776,699 " style="fill:rgb(170, 182, 185);stroke-width:none"/>
	<polygon points="863,585 864,742 932,645 " style="fill:rgb(185, 220, 217);stroke-width:none"/>
	<polygon points="864,742 863,585 776,699 " style="fill:rgb(182, 215, 214);stroke-width:none"/>
	<polygon points="864,742 1012,660 932,645 " style="fill:rgb(183, 208, 207);stroke-width:none"/>
	<polygon points="900,856 947,952 1039,899 " style="fill:rgb(114, 0, 0);stroke-width:none"/>
	<polygon points="900,856 872,844 947,952 " style="fill:rgb(132, 0, 23);stroke-width:none"/>
	<polygon points="1012,660 900,856 1039,899 " style="fill:rgb(150, 49, 68);stroke-width:none"/>
	<polygon points="900,856 864,742 872,844 " style="fill:rgb(157, 118, 130);stroke-width:none"/>
	<polygon points="864,742 900,856 1012,660 " style="fill:rgb(169, 156, 162);stroke-width:none"/>
	<polygon points="1227,438 1241,469 1305,445 " style="fill:rgb(206, 229, 222);stroke-width:none"/>
	<polygon points="1241,469 1297,493 1305,445 " style="fill:rgb(212, 255, 253);stroke-width:none"/>
	<polygon points="1241,469 1290,638 1297,493 " style="fill:rgb(218, 255, 255);stroke-width:none"/>
	<polygon points="1290,638 1012,660 1307,758 " style="fill:rgb(184, 159, 162);stroke-width:none"/>
	<polygon points="1302,881 1408,786 1307,758 " style="fill:rgb(90, 0, 0);stroke-width:none"/>
	<polygon points="1408,786 1429,818 1566,760 " style="fill:rgb(83, 0, 0);stroke-width:none"/>
	<polygon points="1920,716 1920,702 1826,801 " style="fill:rgb(83, 0, 0);stroke-width:none"/>
	<polygon points="1920,724 1920,716 1826,801 " style="fill:rgb(71, 0, 0);stroke-width:none"/>
	<polygon points="1920,606 1900,628 1920,702 " style="fill:rgb(208, 160, 158);stroke-width:none"/>
	<polygon points="1920,606 1920,576 1870,590 " style="fill:rgb(250, 255, 255);stroke-width:none"/>
	<polygon points="1900,628 1920,606 1870,590 " style="fill:rgb(239, 255, 255);stroke-width:none"/>
	<polygon points="1841,1044 1909,933 1752,990 " style="fill:rgb(0, 0, 0);stroke-width:none"/>
	<polygon points="1909,933 1801,842 1752,990 " style="fill:rgb(0, 0, 0);stroke-width:none"/>
	<polygon points="1801,842 1909,933 1920,875 " style="fill:rgb(0, 0, 0);stroke-width:none"/>
	<polygon points="1459,939 1412,880 1442,947 " style="fill:rgb(0, 0, 0);stroke-width:none"/>
	<polygon points="1412,880 1459,939 1429,818 " style="fill:rgb(0, 0, 0);stroke-width:none"/>
	<polygon points="1412,880 1302,881 1442,947 " style="fill:rgb(0, 0, 0);stroke-width:none"/>
	<polygon points="1408,786 1412,880 1429,818 " style="fill:rgb(48, 0, 0);stroke-width:none"/>
	<polygon points="1412,880 1408,786 1302,881 " style="fill:rgb(36, 0, 0);stroke-width:none"/>
	<polygon points="1392,513 1389,571 1587,549 " style="fill:rgb(233, 255, 255);stroke-width:none"/>
	<polygon points="1592,509 1392,513 1587,549 " style="fill:rgb(240, 255, 255);stroke-width:none"/>
	<polygon points="1392,513 1592,509 1507,319 " style="fill:rgb(222, 255, 255);stroke-width:none"/>
	<polygon points="1392,513 1507,319 1305,445 " style="fill:rgb(207, 223, 215);stroke-width:none"/>
	<polygon points="1297,493 1392,513 1305,445 " style="fill:rgb(218, 255, 255);stroke-width:none"/>
	<polygon points="1742,88 1809,0 1758,0 " style="fill:rgb(0, 0, 0);stroke-width:none"/>
	<polygon points="1809,0 1742,88 1774,155 " style="fill:rgb(0, 0, 0);stroke-width:none"/>
	<polygon points="1904,211 1774,155 1806,251 " style="fill:rgb(0, 0, 0);stroke-width:none"/>
	<polygon points="1904,211 1920,141 1774,155 " style="fill:rgb(0, 0, 0);stroke-width:none"/>
	<polygon points="1099,43 1070,124 1119,144 " style="fill:rgb(17, 0, 0);stroke-width:none"/>
	<polygon points="1099,43 1067,14 1070,124 " style="fill:rgb(0, 0, 0);stroke-width:none"/>
	<polygon points="1067,14 1099,43 1083,0 " style="fill:rgb(0, 0, 0);stroke-width:none"/>
	<polygon points="1148,154 1099,43 1119,144 " style="fill:rgb(15, 0, 0);stroke-width:none"/>
	<polygon points="1227,135 1099,43 1148,154 " style="fill:rgb(0, 0, 0);stroke-width:none"/>
	<polygon points="1599,253 1651,181 1547,257 " style="fill:rgb(7, 0, 0);stroke-width:none"/>
	<polygon points="1651,181 1399,111 1547,257 " style="fill:rgb(0, 0, 0);stroke-width:none"/>
	<polygon points="1742,88 1651,181 1774,155 " style="fill:rgb(0, 0, 0);stroke-width:none"/>
	<polygon points="1774,155 1651,181 1806,251 " style="fill:rgb(0, 0, 0);stroke-width:none"/>
	<polygon points="1651,181 1687,341 1806,251 " style="fill:rgb(27, 0, 0);stroke-width:none"/>
	<polygon points="1687,341 1651,181 1599,253 " style="fill:rgb(42, 0, 0);stroke-width:none"/>
	<polygon points="635,713 503,712 506,738 " style="fill:rgb(169, 204, 206);stroke-width:none"/>
	<polygon points="503,712 358,698 506,738 " style="fill:rgb(164, 186, 190);stroke-width:none"/>
	<polygon points="503,712 487,678 358,698 " style="fill:rgb(165, 181, 186);stroke-width:none"/>
	<polygon points="503,712 635,713 534,614 " style="fill:rgb(171, 197, 199);stroke-width:none"/>
	<polygon points="487,678 503,712 534,614 " style="fill:rgb(169, 187, 191);stroke-width:none"/>
	<polygon points="502,31 615,346 645,57 " style="fill:rgb(168, 0, 0);stroke-width:none"/>
	<polygon points="615,346 502,31 440,39 " style="fill:rgb(177, 41, 56);stroke-width:none"/>
	<polygon points="575,14 502,31 645,57 " style="fill:rgb(166, 0, 0);stroke-width:none"/>
	<polygon points="502,31 502,0 440,39 " style="fill:rgb(182, 59, 71);stroke-width:none"/>
	<polygon points="101,168 141,90 95,91 " style="fill:rgb(199, 249, 242);stroke-width:none"/>
	<polygon points="204,182 141,90 101,168 " style="fill:rgb(198, 247, 240);stroke-width:none"/>
	<polygon points="141,90 204,182 440,39 " style="fill:rgb(200, 215, 210);stroke-width:none"/>
	<polygon points="95,91 141,90 0,0 " style="fill:rgb(201, 246, 238);stroke-width:none"/>
	<polygon points="141,90 440,39 0,0 " style="fill:rgb(202, 239, 231);stroke-width:none"/>
	<polygon points="872,0 826,0 876,35 " style="fill:rgb(89, 0, 0);stroke-width:none"/>
	<polygon points="826,0 806,0 866,81 " style="fill:rgb(98, 0, 0);stroke-width:none"/>
	<polygon points="876,35 826,0 866,81 " style="fill:rgb(89, 0, 0);stroke-width:none"/>
	<polygon points="840,513 815,481 799,504 " style="fill:rgb(186, 176, 177);stroke-width:none"/>
	<polygon points="815,481 840,513 839,425 " style="fill:rgb(185, 160, 163);stroke-width:none"/>
	<polygon points="799,504 815,481 750,363 " style="fill:rgb(182, 139, 144);stroke-width:none"/>
	<polygon points="815,481 839,425 750,363 " style="fill:rgb(181, 118, 125);stroke-width:none"/>
	<polygon points="434,981 481,942 365,927 " style="fill:rgb(151, 214, 219);stroke-width:none"/>
	<polygon points="481,942 434,981 432,991 " style="fill:rgb(152, 227, 231);stroke-width:none"/>
	<polygon points="434,981 365,927 366,972 " style="fill:rgb(147, 194, 202);stroke-width:none"/>
	<polygon points="389,1003 434,981 366,972 " style="fill:rgb(146, 203, 210);stroke-width:none"/>
	<polygon points="432,991 434,981 389,1003 " style="fill:rgb(148, 217, 222);stroke-width:none"/>
	<polygon points="623,923 563,1045 643,1080 " style="fill:rgb(148, 208, 214);stroke-width:none"/>
	<polygon points="546,1002 563,1045 623,923 " style="fill:rgb(152, 227, 231);stroke-width:none"/>
	<polygon points="643,1080 563,1045 413,1058 " style="fill:rgb(148, 242, 245);stroke-width:none"/>
	<polygon points="563,1045 546,1002 413,1058 " style="fill:rgb(151, 246, 248);stroke-width:none"/>
	<polygon points="1290,638 1328,575 1297,493 " style="fill:rgb(218, 255, 255);stroke-width:none"/>
	<polygon points="1328,575 1392,513 1297,493 " style="fill:rgb(223, 255, 255);stroke-width:none"/>
	<polygon points="1392,513 1328,575 1389,571 " style="fill:rgb(225, 255, 255);stroke-width:none"/>
	<polygon points="1290,638 1049,556 1012,660 " style="fill:rgb(199, 251, 243);stroke-width:none"/>
	<polygon points="1049,556 1290,638 1241,469 " style="fill:rgb(211, 255, 255);stroke-width:none"/>
	<polygon points="1012,660 1049,556 932,645 " style="fill:rgb(193, 237, 231);stroke-width:none"/>
	<polygon points="1049,556 1227,438 1090,380 " style="fill:rgb(199, 201, 198);stroke-width:none"/>
	<polygon points="1049,556 1241,469 1227,438 " style="fill:rgb(207, 250, 241);stroke-width:none"/>
	<polygon points="1049,556 863,585 932,645 " style="fill:rgb(193, 234, 228);stroke-width:none"/>
	<polygon points="1049,556 840,513 863,585 " style="fill:rgb(193, 220, 216);stroke-width:none"/>
	<polygon points="1049,556 1090,380 962,334 " style="fill:rgb(188, 135, 139);stroke-width:none"/>
	<polygon points="839,425 1049,556 962,334 " style="fill:rgb(187, 144, 147);stroke-width:none"/>
	<polygon points="840,513 1049,556 839,425 " style="fill:rgb(191, 191, 190);stroke-width:none"/>
	<polygon points="1308,658 1290,638 1307,758 " style="fill:rgb(183, 133, 138);stroke-width:none"/>
	<polygon points="1408,786 1308,658 1307,758 " style="fill:rgb(151, 0, 0);stroke-width:none"/>
	<polygon points="1308,658 1408,786 1389,571 " style="fill:rgb(189, 148, 151);stroke-width:none"/>
	<polygon points="1328,575 1308,658 1389,571 " style="fill:rgb(215, 255, 255);stroke-width:none"/>
	<polygon points="1308,658 1328,575 1290,638 " style="fill:rgb(207, 255, 252);stroke-width:none"/>
	<polygon points="1408,786 1532,664 1389,571 " style="fill:rgb(187, 120, 126);stroke-width:none"/>
	<polygon points="1389,571 1532,664 1587,549 " style="fill:rgb(227, 255, 255);stroke-width:none"/>
	<polygon points="1532,664 1593,646 1587,549 " style="fill:rgb(220, 255, 255);stroke-width:none"/>
	<polygon points="1532,664 1408,786 1566,760 " style="fill:rgb(132, 0, 0);stroke-width:none"/>
	<polygon points="1739,1080 1888,1080 1841,1044 " style="fill:rgb(0, 0, 0);stroke-width:none"/>
	<polygon points="1739,1080 1841,1044 1752,990 " style="fill:rgb(0, 0, 0);stroke-width:none"/>
	<polygon points="1699,1011 1739,1080 1752,990 " style="fill:rgb(0, 0, 0);stroke-width:none"/>
	<polygon points="1739,1080 1699,1011 1715,1080 " style="fill:rgb(0, 0, 0);stroke-width:none"/>
	<polygon points="1909,933 1920,1044 1920,875 " style="fill:rgb(0, 0, 0);stroke-width:none"/>
	<polygon points="1920,1044 1909,933 1841,1044 " style="fill:rgb(0, 0, 0);stroke-width:none"/>
	<polygon points="1888,1080 1920,1044 1841,1044 " style="fill:rgb(0, 0, 0);stroke-width:none"/>
	<polygon points="1809,0 1920,32 1920,0 " style="fill:rgb(0, 0, 0);stroke-width:none"/>
	<polygon points="1920,43 1920,32 1809,0 " style="fill:rgb(0, 0, 0);stroke-width:none"/>
	<polygon points="1920,105 1809,0 1774,155 " style="fill:rgb(0, 0, 0);stroke-width:none"/>
	<polygon points="1920,105 1920,43 1809,0 " style="fill:rgb(0, 0, 0);stroke-width:none"/>
	<polygon points="1920,141 1920,105 1774,155 " style="fill:rgb(0, 0, 0);stroke-width:none"/>
	<polygon points="1904,211 1920,197 1920,141 " style="fill:rgb(0, 0, 0);stroke-width:none"/>
	<polygon points="1920,494 1920,305 1903,345 " style="fill:rgb(198, 161, 160);stroke-width:none"/>
	<polygon points="1816,405 1920,494 1903,345 " style="fill:rgb(229, 255, 255);stroke-width:none"/>
	<polygon points="1920,494 1771,476 1920,516 " style="fill:rgb(255, 255, 255);stroke-width:none"/>
	<polygon points="1920,494 1816,405 1771,476 " style="fill:rgb(255, 255, 255);stroke-width:none"/>
	<polygon points="1771,476 1772,399 1759,407 " style="fill:rgb(235, 255, 255);stroke-width:none"/>
	<polygon points="1816,405 1772,399 1771,476 " style="fill:rgb(237, 255, 255);stroke-width:none"/>
	<polygon points="1772,399 1687,341 1759,407 " style="fill:rgb(197, 150, 151);stroke-width:none"/>
	<polygon points="1819,266 1816,405 1903,345 " style="fill:rgb(147, 0, 0);stroke-width:none"/>
	<polygon points="1819,266 1772,399 1816,405 " style="fill:rgb(171, 1, 21);stroke-width:none"/>
	<polygon points="1819,266 1904,211 1806,251 " style="fill:rgb(0, 0, 0);stroke-width:none"/>
	<polygon points="1819,266 1905,264 1904,211 " style="fill:rgb(0, 0, 0);stroke-width:none"/>
	<polygon points="1687,341 1819,266 1806,251 " style="fill:rgb(67, 0, 0);stroke-width:none"/>
	<polygon points="1772,399 1819,266 1687,341 " style="fill:rgb(143, 0, 0);stroke-width:none"/>
	<polygon points="1358,17 1392,0 1083,0 " style="fill:rgb(0, 0, 0);stroke-width:none"/>
	<polygon points="1099,43 1358,17 1083,0 " style="fill:rgb(0, 0, 0);stroke-width:none"/>
	<polygon points="1358,17 1099,43 1227,135 " style="fill:rgb(0, 0, 0);stroke-width:none"/>
	<polygon points="1358,17 1397,35 1392,0 " style="fill:rgb(0, 0, 0);stroke-width:none"/>
	<polygon points="1397,35 1358,17 1399,111 " style="fill:rgb(0, 0, 0);stroke-width:none"/>
	<polygon points="1399,111 1358,17 1303,181 " style="fill:rgb(0, 0, 0);stroke-width:none"/>
	<polygon points="1358,17 1227,135 1303,181 " style="fill:rgb(0, 0, 0);stroke-width:none"/>
	<polygon points="1392,0 1423,25 1758,0 " style="fill:rgb(0, 0, 0);stroke-width:none"/>
	<polygon points="1397,35 1423,25 1392,0 " style="fill:rgb(0, 0, 0);stroke-width:none"/>
	<polygon points="1423,25 1742,88 1758,0 " style="fill:rgb(0, 0, 0);stroke-width:none"/>
	<polygon points="1423,25 1651,181 1742,88 " style="fill:rgb(0, 0, 0);stroke-width:none"/>
	<polygon points="1651,181 1423,25 1399,111 " style="fill:rgb(0, 0, 0);stroke-width:none"/>
	<polygon points="1423,25 1397,35 1399,111 " style="fill:rgb(0, 0, 0);stroke-width:none"/>
	<polygon points="512,0 502,31 575,14 " style="fill:rgb(175, 6, 24);stroke-width:none"/>
	<polygon points="502,31 512,0 502,0 " style="fill:rgb(179, 33, 48);stroke-width:none"/>
	<polygon points="512,0 575,14 633,0 " style="fill:rgb(167, 0, 0);stroke-width:none"/>
	<polygon points="1593,646 1563,682 1566,760 " style="fill:rgb(165, 0, 0);stroke-width:none"/>
	<polygon points="1563,682 1532,664 1566,760 " style="fill:rgb(161, 0, 0);stroke-width:none"/>
	<polygon points="1532,664 1563,682 1593,646 " style="fill:rgb(192, 124, 128);stroke-width:none"/>
	<polygon points="1920,1058 1888,1080 1920,1080 " style="fill:rgb(0, 0, 0);stroke-width:none"/>
	<polygon points="1920,1058 1920,1044 1888,1080 " style="fill:rgb(0, 0, 0);stroke-width:none"/>
	<polygon points="1920,230 1905,264 1920,280 " style="fill:rgb(11, 0, 0);stroke-width:none"/>
	<polygon points="1920,230 1920,197 1904,211 " style="fill:rgb(0, 0, 0);stroke-width:none"/>
	<polygon points="1905,264 1920,230 1904,211 " style="fill:rgb(0, 0, 0);stroke-width:none"/>
	<polygon points="1920,305 1888,291 1903,345 " style="fill:rgb(111, 0, 0);stroke-width:none"/>
	<polygon points="1888,291 1819,266 1903,345 " style="fill:rgb(90, 0, 0);stroke-width:none"/>
	<polygon points="1819,266 1888,291 1905,264 " style="fill:rgb(42, 0, 0);stroke-width:none"/>
	<polygon points="1888,291 1920,305 1920,280 " style="fill:rgb(75, 0, 0);stroke-width:none"/>
	<polygon points="1905,264 1888,291 1920,280 " style="fill:rgb(51, 0, 0);stroke-width:none"/>
</svg>